<svg xmlns="http://www.w3.org/2000/svg" width="16" height="16" viewBox="0 0 24 24">
  <path d="M12.0002 1C12.3808 1.00006 12.7283 1.21636 12.8967 1.55762L15.7532 7.3457L22.1448 8.28027C22.5213 8.33536 22.8341 8.59996 22.9514 8.96191C23.0686 9.3238 22.97 9.72088 22.6975 9.98633L18.0745 14.4883L19.1663 20.8506C19.2306 21.2257 19.0757 21.6054 18.7678 21.8291C18.46 22.0527 18.0519 22.0822 17.7151 21.9053L12.0002 18.8994L6.2854 21.9053C5.94863 22.0822 5.54052 22.0526 5.23267 21.8291C4.92469 21.6054 4.76988 21.2258 4.83423 20.8506L5.92505 14.4883L1.30298 9.98633C1.03043 9.72087 0.931842 9.32384 1.04907 8.96191C1.16646 8.59993 1.47917 8.33531 1.85571 8.28027L8.24634 7.3457L11.1038 1.55762L11.175 1.43555C11.3597 1.1656 11.6672 1 12.0002 1ZM9.80688 8.70215C9.66139 8.99691 9.38017 9.20139 9.05493 9.24902L4.14771 9.96582L7.69751 13.4238C7.93323 13.6535 8.04108 13.9842 7.9856 14.3086L7.14771 19.1914L11.5344 16.8848C11.8258 16.7316 12.1747 16.7316 12.4661 16.8848L16.8518 19.1914L16.0149 14.3086C15.9594 13.9842 16.0672 13.6535 16.303 13.4238L19.8518 9.96582L14.9456 9.24902C14.6203 9.20144 14.3391 8.99692 14.1936 8.70215L12.0002 4.25781L9.80688 8.70215Z" fill="#7f7f7f"/>
</svg>
